{
  "title": "The Horror of Dracula (1958) HAMMER",
  "uid": 5573732,
  "size": 734549413,
  "categoryP": "video",
  "categoryS": "movies",
  "magnet": "?xt=urn:btih:7f7cb71661d56fb7a9c26dc018e180817bdaf131&amp;dn=The+Horror+of+Dracula+%281958%29+HAMMER&amp;tr=udp%3A%2F%2Ftracker.openbittorrent.com%3A80&amp;tr=udp%3A%2F%2Fopen.demonii.com%3A1337&amp;tr=udp%3A%2F%2Ftracker.coppersurfer.tk%3A6969&amp;tr=udp%3A%2F%2Fexodus.desync.com%3A6969",
  "seeders": 46,
  "leechers": 2,
  "uploader": "Byron1799",
  "files": -1,
  "time": 1274323151,
  "description": "[b]The Horror of Dracula[/b] (1958) Hammer - UK Title [b]Dracula[/b]\n\n[b]PLOT[/b]:After Jonathan Harker attacks Dracula at his castle (apparently somewhere in Germany), the vampire travels to a nearby city, where he preys on the family of Harker's fiancÃƒÂ©e. The only one who may be able to protect them is Dr. van Helsing, Harker's friend and fellow-student of vampires, who is determined to destroy Dracula, whatever the cost.\n\n[b]IMDB[/b]: [url]http://www.imdb.com/title/tt0051554/[/url]\n[b]WIK[/b]I: [url]http://en.wikipedia.org/wiki/Dracula_%281958_film%29[/url]\n\n\nFormat                           : AVI\nFormat/Info                      : Audio Video Interleave\nFile size                        : 700 MiB\nDuration                         : 1h 21mn\nOverall bit rate                 : 1 201 Kbps\nWriting application              : VirtualDubMod 1.5.4.1 (build 2178/release)\nWriting library                  : VirtualDubMod build 2178/release\n\nVideo\nID                               : 0\nFormat                           : MPEG-4 Visual\nFormat profile                   : Advanced Simple@L5\nFormat settings, BVOP            : Yes\nFormat settings, QPel            : No\nFormat settings, GMC             : No warppoints\nFormat settings, Matrix          : Custom\nCodec ID                         : XVID\nCodec ID/Hint                    : XviD\nDuration                         : 1h 21mn\nBit rate                         : 1 102 Kbps\nWidth                            : 720 pixels\nHeight                           : 416 pixels\nDisplay aspect ratio             : 16:9\nFrame rate                       : 23.976 fps\nResolution                       : 8 bits\nColorimetry                      : 4:2:0\nScan type                        : Progressive\nBits/(Pixel*Frame)               : 0.154\nStream size                      : 643 MiB (92%)\nWriting library                  : XviD 1.2.1 (UTC 2008-12-04)\n\nAudio\nID                               : 1\nFormat                           : MPEG Audio\nFormat version                   : Version 1\nFormat profile                   : Layer 3\nMode                             : Joint stereo\nFormat_Settings_ModeExtension    : MS Stereo\nCodec ID                         : 55\nCodec ID/Hint                    : MP3\nDuration                         : 1h 21mn\nBit rate mode                    : Variable\nBit rate                         : 85.8 Kbps\nChannel(s)                       : 2 channels\nSampling rate                    : 48.0 KHz\nStream size                      : 50.0 MiB (7%)\nAlignment                        : Aligned on interleaves\nInterleave, duration             : 24 ms (0.58 video frame)\nInterleave, preload duration     : 485 ms\nLanguage                         : English\n\n\n[u][i][b]Please don't expect to get the movie in a few minutes, I only have limited bandwidth. Just hang in there, you'll get it in the end.[/b][/i][/u]",
  "parsed": {
    "xt": "urn:btih:7f7cb71661d56fb7a9c26dc018e180817bdaf131",
    "dn": "The Horror of Dracula (1958) HAMMER",
    "tr": [
      "udp://exodus.desync.com:6969",
      "udp://open.demonii.com:1337",
      "udp://tracker.coppersurfer.tk:6969",
      "udp://tracker.openbittorrent.com:80"
    ],
    "infoHash": "7f7cb71661d56fb7a9c26dc018e180817bdaf131",
    "infoHashBuffer": {
      "type": "Buffer",
      "data": [
        127,
        124,
        183,
        22,
        97,
        213,
        111,
        183,
        169,
        194,
        109,
        192,
        24,
        225,
        128,
        129,
        123,
        218,
        241,
        49
      ]
    },
    "name": "The Horror of Dracula (1958) HAMMER",
    "announce": [
      "udp://exodus.desync.com:6969",
      "udp://open.demonii.com:1337",
      "udp://tracker.coppersurfer.tk:6969",
      "udp://tracker.openbittorrent.com:80"
    ],
    "urlList": []
  },
  "previous": 26,
  "peers": 26,
  "last_updated": "2016-12-27T05:09:04.800Z"
}